{
    "asset" : {
        "generator" : "Khronos glTF Blender I/O v3.4.50",
        "version" : "2.0"
    },
    "extensionsUsed" : [
        "KHR_materials_transmission",
        "KHR_materials_specular"
    ],
    "scene" : 0,
    "scenes" : [
        {
            "name" : "Scene",
            "nodes" : [
                0
            ]
        }
    ],
    "nodes" : [
        {
            "mesh" : 0,
            "name" : "mpm_f06__Eames_house_bird",
            "rotation" : [
                0.7071069478988647,
                0,
                0,
                0.7071066498756409
            ],
            "scale" : [
                0.0006866261828690767,
                0.0006866261828690767,
                0.0006866261828690767
            ],
            "translation" : [
                0,
                -0.1298450231552124,
                0
            ]
        }
    ],
    "materials" : [
        {
            "doubleSided" : true,
            "extensions" : {
                "KHR_materials_transmission" : {
                    "transmissionFactor" : 1
                },
                "KHR_materials_specular" : {
                    "specularColorFactor" : [
                        1,
                        1,
                        1
                    ]
                }
            },
            "name" : "body",
            "pbrMetallicRoughness" : {
                "baseColorFactor" : [
                    0.00392200006172061,
                    0.00392200006172061,
                    0.00392200006172061,
                    1
                ],
                "metallicFactor" : 0,
                "roughnessFactor" : 0.800000011920929
            }
        },
        {
            "doubleSided" : true,
            "extensions" : {
                "KHR_materials_transmission" : {
                    "transmissionFactor" : 1
                },
                "KHR_materials_specular" : {
                    "specularColorFactor" : [
                        1,
                        1,
                        1
                    ]
                }
            },
            "name" : "eye_brown",
            "pbrMetallicRoughness" : {
                "baseColorFactor" : [
                    0.36470600962638855,
                    0.17647099494934082,
                    0.08627499639987946,
                    1
                ],
                "metallicFactor" : 0,
                "roughnessFactor" : 0.800000011920929
            }
        },
        {
            "doubleSided" : true,
            "extensions" : {
                "KHR_materials_transmission" : {
                    "transmissionFactor" : 1
                },
                "KHR_materials_specular" : {
                    "specularColorFactor" : [
                        1,
                        1,
                        1
                    ]
                }
            },
            "name" : "eye_black",
            "pbrMetallicRoughness" : {
                "baseColorFactor" : [
                    0.00392200006172061,
                    0.00392200006172061,
                    0.00392200006172061,
                    1
                ],
                "metallicFactor" : 0,
                "roughnessFactor" : 0.800000011920929
            }
        }
    ],
    "meshes" : [
        {
            "name" : "mpm_f06__Eames_house_bird",
            "primitives" : [
                {
                    "attributes" : {
                        "POSITION" : 0,
                        "TEXCOORD_0" : 1,
                        "NORMAL" : 2
                    },
                    "indices" : 3,
                    "material" : 0
                },
                {
                    "attributes" : {
                        "POSITION" : 4,
                        "TEXCOORD_0" : 5,
                        "NORMAL" : 6
                    },
                    "indices" : 7,
                    "material" : 1
                },
                {
                    "attributes" : {
                        "POSITION" : 8,
                        "TEXCOORD_0" : 9,
                        "NORMAL" : 10
                    },
                    "indices" : 11,
                    "material" : 2
                }
            ]
        }
    ],
    "accessors" : [
        {
            "bufferView" : 0,
            "componentType" : 5126,
            "count" : 2427,
            "max" : [
                142.04425048828125,
                43.52759552001953,
                2.9000000722589903e-05
            ],
            "min" : [
                -127.84634399414062,
                -43.52758026123047,
                -277.0104064941406
            ],
            "type" : "VEC3"
        },
        {
            "bufferView" : 1,
            "componentType" : 5126,
            "count" : 2427,
            "type" : "VEC2"
        },
        {
            "bufferView" : 2,
            "componentType" : 5126,
            "count" : 2427,
            "type" : "VEC3"
        },
        {
            "bufferView" : 3,
            "componentType" : 5123,
            "count" : 14352,
            "type" : "SCALAR"
        },
        {
            "bufferView" : 4,
            "componentType" : 5126,
            "count" : 348,
            "max" : [
                -73.74067687988281,
                20.117053985595703,
                -260.9641418457031
            ],
            "min" : [
                -82.26010131835938,
                -20.117027282714844,
                -269.4057312011719
            ],
            "type" : "VEC3"
        },
        {
            "bufferView" : 5,
            "componentType" : 5126,
            "count" : 348,
            "type" : "VEC2"
        },
        {
            "bufferView" : 6,
            "componentType" : 5126,
            "count" : 348,
            "type" : "VEC3"
        },
        {
            "bufferView" : 7,
            "componentType" : 5123,
            "count" : 1728,
            "type" : "SCALAR"
        },
        {
            "bufferView" : 8,
            "componentType" : 5126,
            "count" : 198,
            "max" : [
                -75.6526870727539,
                20.167985916137695,
                -263.78533935546875
            ],
            "min" : [
                -80.55482482910156,
                -20.167959213256836,
                -268.4075927734375
            ],
            "type" : "VEC3"
        },
        {
            "bufferView" : 9,
            "componentType" : 5126,
            "count" : 198,
            "type" : "VEC2"
        },
        {
            "bufferView" : 10,
            "componentType" : 5126,
            "count" : 198,
            "type" : "VEC3"
        },
        {
            "bufferView" : 11,
            "componentType" : 5123,
            "count" : 720,
            "type" : "SCALAR"
        }
    ],
    "bufferViews" : [
        {
            "buffer" : 0,
            "byteLength" : 29124,
            "byteOffset" : 0,
            "target" : 34962
        },
        {
            "buffer" : 0,
            "byteLength" : 19416,
            "byteOffset" : 29124,
            "target" : 34962
        },
        {
            "buffer" : 0,
            "byteLength" : 29124,
            "byteOffset" : 48540,
            "target" : 34962
        },
        {
            "buffer" : 0,
            "byteLength" : 28704,
            "byteOffset" : 77664,
            "target" : 34963
        },
        {
            "buffer" : 0,
            "byteLength" : 4176,
            "byteOffset" : 106368,
            "target" : 34962
        },
        {
            "buffer" : 0,
            "byteLength" : 2784,
            "byteOffset" : 110544,
            "target" : 34962
        },
        {
            "buffer" : 0,
            "byteLength" : 4176,
            "byteOffset" : 113328,
            "target" : 34962
        },
        {
            "buffer" : 0,
            "byteLength" : 3456,
            "byteOffset" : 117504,
            "target" : 34963
        },
        {
            "buffer" : 0,
            "byteLength" : 2376,
            "byteOffset" : 120960,
            "target" : 34962
        },
        {
            "buffer" : 0,
            "byteLength" : 1584,
            "byteOffset" : 123336,
            "target" : 34962
        },
        {
            "buffer" : 0,
            "byteLength" : 2376,
            "byteOffset" : 124920,
            "target" : 34962
        },
        {
            "buffer" : 0,
            "byteLength" : 1440,
            "byteOffset" : 127296,
            "target" : 34963
        }
    ],
    "buffers" : [
        {
            "byteLength" : 128736,
            "uri" : "data:application/octet-stream;base64,"
        }
    ]
}
