{
    "asset" : {
        "generator" : "Khronos glTF Blender I/O v3.4.50",
        "version" : "2.0"
    },
    "scene" : 0,
    "scenes" : [
        {
            "name" : "Scene",
            "nodes" : [
                0,
                1,
                2
            ]
        }
    ],
    "nodes" : [
        {
            "mesh" : 0,
            "name" : "SIMPLE6.001"
        },
        {
            "mesh" : 1,
            "name" : "h2"
        },
        {
            "mesh" : 2,
            "name" : "h3"
        }
    ],
    "materials" : [
        {
            "doubleSided" : true,
            "name" : "Material.004",
            "pbrMetallicRoughness" : {
                "baseColorTexture" : {
                    "index" : 0
                },
                "metallicFactor" : 0,
                "roughnessFactor" : 0.5
            }
        }
    ],
    "meshes" : [
        {
            "name" : "SIMPLE6.001",
            "primitives" : [
                {
                    "attributes" : {
                        "POSITION" : 0,
                        "TEXCOORD_0" : 1,
                        "NORMAL" : 2
                    },
                    "indices" : 3,
                    "material" : 0
                }
            ]
        },
        {
            "name" : "h2.001",
            "primitives" : [
                {
                    "attributes" : {
                        "POSITION" : 4,
                        "TEXCOORD_0" : 5,
                        "NORMAL" : 6
                    },
                    "indices" : 7,
                    "material" : 0
                }
            ]
        },
        {
            "name" : "h3",
            "primitives" : [
                {
                    "attributes" : {
                        "POSITION" : 8,
                        "TEXCOORD_0" : 9,
                        "NORMAL" : 10
                    },
                    "indices" : 11,
                    "material" : 0
                }
            ]
        }
    ],
    "textures" : [
        {
            "sampler" : 0,
            "source" : 0
        }
    ],
    "images" : [
        {
            "bufferView" : 4,
            "mimeType" : "image/png",
            "name" : "Untitled"
        }
    ],
    "accessors" : [
        {
            "bufferView" : 0,
            "componentType" : 5126,
            "count" : 36449,
            "max" : [
                2535.4228515625,
                114.3915023803711,
                310
            ],
            "min" : [
                9.621574401855469,
                114.39144897460938,
                6.366462912410498e-12
            ],
            "type" : "VEC3"
        },
        {
            "bufferView" : 1,
            "componentType" : 5126,
            "count" : 36449,
            "type" : "VEC2"
        },
        {
            "bufferView" : 2,
            "componentType" : 5126,
            "count" : 36449,
            "type" : "VEC3"
        },
        {
            "bufferView" : 3,
            "componentType" : 5123,
            "count" : 36864,
            "type" : "SCALAR"
        },
        {
            "bufferView" : 5,
            "componentType" : 5126,
            "count" : 1090,
            "max" : [
                1070.67041015625,
                111.90708923339844,
                310
            ],
            "min" : [
                9.610088348388672,
                95.08002471923828,
                6.366462912410498e-12
            ],
            "type" : "VEC3"
        },
        {
            "bufferView" : 6,
            "componentType" : 5126,
            "count" : 1090,
            "type" : "VEC2"
        },
        {
            "bufferView" : 7,
            "componentType" : 5126,
            "count" : 1090,
            "type" : "VEC3"
        },
        {
            "bufferView" : 8,
            "componentType" : 5123,
            "count" : 1560,
            "type" : "SCALAR"
        },
        {
            "bufferView" : 9,
            "componentType" : 5126,
            "count" : 507,
            "max" : [
                1432.0067138671875,
                111.06103515625,
                310
            ],
            "min" : [
                9.621575355529785,
                95.08000183105469,
                6.366462912410498e-12
            ],
            "type" : "VEC3"
        },
        {
            "bufferView" : 10,
            "componentType" : 5126,
            "count" : 507,
            "type" : "VEC2"
        },
        {
            "bufferView" : 11,
            "componentType" : 5126,
            "count" : 507,
            "type" : "VEC3"
        },
        {
            "bufferView" : 12,
            "componentType" : 5123,
            "count" : 1668,
            "type" : "SCALAR"
        }
    ],
    "bufferViews" : [
        {
            "buffer" : 0,
            "byteLength" : 437388,
            "byteOffset" : 0,
            "target" : 34962
        },
        {
            "buffer" : 0,
            "byteLength" : 291592,
            "byteOffset" : 437388,
            "target" : 34962
        },
        {
            "buffer" : 0,
            "byteLength" : 437388,
            "byteOffset" : 728980,
            "target" : 34962
        },
        {
            "buffer" : 0,
            "byteLength" : 73728,
            "byteOffset" : 1166368,
            "target" : 34963
        },
        {
            "buffer" : 0,
            "byteLength" : 1113231,
            "byteOffset" : 1240096
        },
        {
            "buffer" : 0,
            "byteLength" : 13080,
            "byteOffset" : 2353328,
            "target" : 34962
        },
        {
            "buffer" : 0,
            "byteLength" : 8720,
            "byteOffset" : 2366408,
            "target" : 34962
        },
        {
            "buffer" : 0,
            "byteLength" : 13080,
            "byteOffset" : 2375128,
            "target" : 34962
        },
        {
            "buffer" : 0,
            "byteLength" : 3120,
            "byteOffset" : 2388208,
            "target" : 34963
        },
        {
            "buffer" : 0,
            "byteLength" : 6084,
            "byteOffset" : 2391328,
            "target" : 34962
        },
        {
            "buffer" : 0,
            "byteLength" : 4056,
            "byteOffset" : 2397412,
            "target" : 34962
        },
        {
            "buffer" : 0,
            "byteLength" : 6084,
            "byteOffset" : 2401468,
            "target" : 34962
        },
        {
            "buffer" : 0,
            "byteLength" : 3336,
            "byteOffset" : 2407552,
            "target" : 34963
        }
    ],
    "samplers" : [
        {
            "magFilter" : 9729,
            "minFilter" : 9987
        }
    ],
    "buffers" : [
        {
            "byteLength" : 2410888,
            "uri" : "data:application/octet-stream;base64,"
        }
    ]
}
