<?xml version="1.0" encoding="utf-8"?>
<!-- Generator: Adobe Illustrator 16.0.3, SVG Export Plug-In . SVG Version: 6.00 Build 0)  -->
<!DOCTYPE svg PUBLIC "-//W3C//DTD SVG 1.1//EN" "http://www.w3.org/Graphics/SVG/1.1/DTD/svg11.dtd">
<svg version="1.1" xmlns="http://www.w3.org/2000/svg" xmlns:xlink="http://www.w3.org/1999/xlink" x="0px" y="0px" width="700px"
	 height="700px" viewBox="0 0 700 700" enable-background="new 0 0 700 700" xml:space="preserve">
<g id="Capa_2">
	<rect x="143.5" y="159.5" fill="#FFFFFF" stroke="#000000" stroke-miterlimit="10" width="420" height="411"/>
</g>
<g id="Capa_1">
	<g>
		<path d="M332.976,368.031h34.048v-16.026h-36.053L332.976,368.031z M387.054,368.031h34.049l2.005-16.026h-36.054V368.031
			L387.054,368.031z M265.877,351.006l4.003,16.026h42.062l-2.005-16.026H265.877z M321.957,292.918h44.068v-11.017h-46.073
			L321.957,292.918z M327.966,329.972h39.059v-16.026h-41.063L327.966,329.972z M320.959,468.181
			c-7.015,0-13.021,6.009-13.021,13.022s6.008,13.021,13.021,13.021s13.021-6.008,13.021-13.021
			C333.974,474.188,327.966,468.181,320.959,468.181z M418.099,468.181c-7.014,0-13.021,6.009-13.021,13.022
			s6.009,13.021,13.021,13.021s13.021-6.008,13.021-13.021C431.119,474.188,425.113,468.181,418.099,468.181z M299.924,281.901
			h-52.08l3.004,11.017h50.075L299.924,281.901z M303.927,313.946h-48.07l4.003,16.026h46.072L303.927,313.946z M349.998,36.53
			C176.741,36.53,36.531,176.737,36.531,350c0,173.258,140.206,313.471,313.47,313.471c173.259,0,313.47-140.207,313.47-313.471
			C663.469,176.737,523.254,36.53,349.998,36.53z M320.959,516.249c-19.029,0-34.047-15.02-34.047-34.049
			c0-19.03,15.02-34.05,34.047-34.05c19.029,0,34.05,15.02,34.05,34.05C355.009,500.224,338.983,516.249,320.959,516.249z
			 M418.099,516.249c-19.029,0-34.049-15.02-34.049-34.049c0-19.03,15.02-34.05,34.049-34.05c19.03,0,34.05,15.02,34.05,34.05
			C452.156,500.224,437.129,516.249,418.099,516.249z M536.28,274.888l-37.053,107.164c-0.999,4.003-5.009,7.015-10.02,7.015
			h-213.32l8.013,29.04h183.275c6.008,0,10.018,5.01,10.018,10.019c0,6.008-5.009,10.018-10.018,10.018H275.889
			c-5.009,0-9.012-3.004-10.018-8.013l-60.096-227.341h-31.043c-6.008,0-10.018-5.009-10.018-10.018
			c0-6.008,5.009-10.018,10.018-10.018h39.059c5.009,0,9.012,3.004,10.018,8.013l19.029,71.11h284.426
			c3.004,0,7.014,2.005,9.012,4.003c0.007,2.005,1.006,6.008,0.007,9.012L536.28,274.888z M349.998,16.5
			C166.725,16.5,16.5,165.726,16.5,350c0,184.276,149.226,333.499,333.498,333.499C534.274,683.499,683.5,534.274,683.5,350
			C683.5,165.724,533.276,16.5,349.998,16.5L349.998,16.5z M349.998,672.484c-178.267,0-323.484-145.218-323.484-323.486
			c0-178.269,145.217-323.484,323.484-323.484c178.271,0,323.484,145.216,323.484,323.485
			C673.483,527.268,528.271,672.484,349.998,672.484L349.998,672.484z M453.155,292.915h54.078l4.003-11.017h-57.089
			L453.155,292.915z M442.138,368.027h39.058l6.008-16.025h-42.062L442.138,368.027z M387.054,292.915h44.065l2.006-11.017h-46.071
			V292.915L387.054,292.915z M387.054,329.968h39.058l2.005-16.026h-41.063V329.968L387.054,329.968z M447.147,329.968h47.071
			l6.008-16.026h-50.075L447.147,329.968z"/>
	</g>
</g>
</svg>
