<?xml version="1.0" encoding="utf-8"?>
<!-- Generator: Adobe Illustrator 16.0.3, SVG Export Plug-In . SVG Version: 6.00 Build 0)  -->
<!DOCTYPE svg PUBLIC "-//W3C//DTD SVG 1.1//EN" "http://www.w3.org/Graphics/SVG/1.1/DTD/svg11.dtd">
<svg version="1.1" id="Capa_1" xmlns="http://www.w3.org/2000/svg" xmlns:xlink="http://www.w3.org/1999/xlink" x="0px" y="0px"
	 width="165px" height="168.89px" viewBox="0 0 165 168.89" enable-background="new 0 0 165 168.89" xml:space="preserve">
<g>
	<path fill-rule="evenodd" clip-rule="evenodd" d="M155.125,86.305c0,11.197-0.093,22.396,0.021,33.593
		c0.194,19.149-14.283,36.598-33.715,40.158c-1.946,0.356-3.953,0.532-5.932,0.536c-22.695,0.036-45.393-0.138-68.085,0.072
		c-19.391,0.179-37.024-14.611-40.373-33.817c-0.34-1.95-0.526-3.954-0.529-5.933C6.476,98.219,6.66,75.522,6.436,52.829
		c-0.189-19.2,14.465-36.754,33.58-40.278c2.043-0.377,4.152-0.545,6.231-0.549c23.295-0.038,46.597-0.36,69.883,0.097
		c15.05,0.295,26.201,8.084,33.776,20.903c4.001,6.771,5.486,14.197,5.284,22.111C154.924,65.504,155.125,75.907,155.125,86.305z
		 M48.415,81.593c1.037-0.053,1.721-0.103,2.406-0.12c6.376-0.163,9.802-3.561,9.876-9.875c0.041-3.5,0.084-7.003-0.031-10.5
		c-0.167-5.072-3.709-8.565-8.774-8.8c-1.067-0.049-2.138-0.007-3.324-0.007c-0.064-1.013-0.144-1.696-0.146-2.379
		c-0.013-4.1,0.032-8.201-0.021-12.3c-0.041-3.172-2.055-5.319-4.872-5.347c-2.658-0.024-4.746,1.996-5.003,4.973
		c-0.121,1.39-0.045,2.798-0.046,4.198c-0.004,3.557-0.001,7.112-0.001,10.683c-1.089,0.079-1.681,0.144-2.273,0.161
		c-6.615,0.184-10.001,3.687-10.026,10.392c-0.009,2.3-0.001,4.6-0.001,6.9c0,8.686,2.66,11.506,11.241,11.941
		c0.273,0.014,0.539,0.186,1.06,0.376c0,1.142,0,2.322,0,3.503c0.001,16.802-0.012,33.604,0.012,50.404
		c0.006,4.235,1.789,6.376,5.102,6.329c3.148-0.045,4.816-2.186,4.821-6.234c0.009-7.5,0.003-15.001,0.003-22.502
		C48.415,102.9,48.415,92.411,48.415,81.593z M111.768,85.646c0,1.666,0,2.854,0,4.042c0,12.899-0.002,25.799,0.002,38.698
		c0.001,3-0.125,6.009,0.074,8.996c0.245,3.676,3.66,5.803,6.835,4.385c2.291-1.023,3-2.932,2.993-5.37
		c-0.048-15.799-0.024-31.6-0.023-47.398c0-1.059,0-2.117,0-3.364c1.536,0,2.637,0.075,3.724-0.013
		c4.751-0.385,8.286-3.598,8.516-8.122c0.218-4.287,0.223-8.604-0.004-12.891c-0.242-4.579-3.884-7.845-8.528-8.046
		c-1.154-0.05-2.312-0.007-3.707-0.007c0-1.426,0-2.41,0-3.395c-0.001-5.799,0.031-11.6-0.015-17.399
		c-0.025-3.259-1.922-5.281-4.815-5.313c-2.913-0.032-4.892,1.901-5.006,5.164c-0.12,3.396-0.041,6.799-0.044,10.199
		c-0.003,3.47-0.001,6.94-0.001,10.481c-0.963,0.115-1.543,0.226-2.125,0.247c-6.973,0.255-10.211,3.552-10.228,10.443
		c-0.007,3.1-0.05,6.201,0.015,9.299c0.111,5.367,3.617,9.004,8.961,9.354C109.374,85.701,110.365,85.646,111.768,85.646z
		 M85.031,83.775c0-1.408,0-2.389,0-3.37c0-10.492,0.001-20.983,0-31.475c0-4.496,0.05-8.994-0.022-13.489
		c-0.047-2.865-1.919-4.827-4.53-4.987c-2.821-0.173-4.902,1.598-5.268,4.567c-0.122,0.986-0.085,1.995-0.085,2.993
		c-0.003,13.988,0,27.977,0.001,41.966c0,1.166,0,2.331,0,3.575c-1.099,0.096-1.78,0.186-2.462,0.211
		c-6.483,0.24-9.841,3.711-9.869,10.224c-0.008,1.897-0.001,3.796-0.001,5.694c0,10.313,1.665,12.199,11.688,13.245
		c0.089,0.009,0.171,0.082,0.644,0.324c0,0.873,0,1.945,0,3.019c0.002,6.795-0.058,13.59,0.033,20.384
		c0.046,3.508,1.994,5.489,5.014,5.473c2.975-0.018,4.833-2.107,4.849-5.585c0.03-6.595,0.01-13.189,0.01-19.784
		c0-1.256,0-2.512,0-3.836c1.019-0.063,1.606-0.12,2.194-0.132c6.919-0.132,10.076-3.269,10.126-10.104
		c0.023-3.197,0.059-6.396-0.016-9.592c-0.133-5.653-3.553-9.093-9.177-9.316C87.275,83.745,86.388,83.775,85.031,83.775z"/>
	<path fill-rule="evenodd" clip-rule="evenodd" fill="#FFFFFF" d="M48.415,81.593c0,10.818,0,21.307,0,31.796
		c0,7.501,0.006,15.002-0.003,22.502c-0.005,4.049-1.673,6.189-4.821,6.234c-3.313,0.047-5.096-2.094-5.102-6.329
		c-0.023-16.801-0.011-33.603-0.012-50.404c0-1.181,0-2.361,0-3.503c-0.521-0.19-0.786-0.362-1.06-0.376
		c-8.581-0.436-11.24-3.255-11.241-11.941c0-2.301-0.008-4.601,0.001-6.9c0.025-6.705,3.412-10.208,10.026-10.392
		c0.593-0.017,1.184-0.082,2.273-0.161c0-3.57-0.003-7.126,0.001-10.683c0.001-1.4-0.074-2.808,0.046-4.198
		c0.258-2.977,2.346-4.998,5.003-4.973c2.817,0.027,4.831,2.174,4.872,5.347c0.053,4.1,0.008,8.2,0.021,12.3
		c0.002,0.684,0.082,1.367,0.146,2.379c1.186,0,2.257-0.042,3.324,0.007c5.065,0.234,8.607,3.728,8.774,8.8
		c0.115,3.497,0.072,7,0.031,10.5c-0.074,6.314-3.5,9.712-9.876,9.875C50.136,81.49,49.452,81.54,48.415,81.593z M50.71,62.473
		c-4.927,0-9.559,0-14.28,0c0,3.022,0,5.847,0,8.732c4.846,0,9.481,0,14.28,0C50.71,68.268,50.71,65.519,50.71,62.473z"/>
	<path fill-rule="evenodd" clip-rule="evenodd" fill="#FFFFFF" d="M111.768,85.646c-1.402,0-2.394,0.055-3.377-0.009
		c-5.344-0.349-8.85-3.987-8.961-9.354c-0.064-3.098-0.021-6.199-0.015-9.299c0.017-6.892,3.255-10.188,10.228-10.443
		c0.582-0.021,1.162-0.132,2.125-0.247c0-3.541-0.002-7.011,0.001-10.481c0.003-3.399-0.076-6.803,0.044-10.199
		c0.114-3.263,2.093-5.196,5.006-5.164c2.894,0.031,4.79,2.054,4.815,5.313c0.046,5.799,0.014,11.6,0.015,17.399
		c0,0.984,0,1.968,0,3.395c1.396,0,2.553-0.042,3.707,0.007c4.645,0.201,8.286,3.467,8.528,8.046
		c0.227,4.287,0.222,8.604,0.004,12.891c-0.229,4.524-3.765,7.737-8.516,8.122c-1.087,0.088-2.188,0.013-3.724,0.013
		c0,1.247,0,2.306,0,3.364c-0.001,15.799-0.024,31.6,0.023,47.398c0.007,2.438-0.702,4.347-2.993,5.37
		c-3.175,1.418-6.59-0.709-6.835-4.385c-0.199-2.987-0.073-5.996-0.074-8.996c-0.004-12.899-0.002-25.799-0.002-38.698
		C111.768,88.5,111.768,87.311,111.768,85.646z M109.604,75.4c4.994,0,9.637,0,14.264,0c0-3.06,0-5.883,0-8.697
		c-4.914,0-9.551,0-14.264,0C109.604,69.707,109.604,72.471,109.604,75.4z"/>
	<path fill-rule="evenodd" clip-rule="evenodd" fill="#FFFFFF" d="M85.031,83.775c1.356,0,2.244-0.03,3.128,0.005
		c5.624,0.223,9.044,3.663,9.177,9.316c0.074,3.196,0.039,6.395,0.016,9.592c-0.05,6.835-3.207,9.972-10.126,10.104
		c-0.588,0.012-1.176,0.069-2.194,0.132c0,1.324,0,2.58,0,3.836c0,6.595,0.021,13.189-0.01,19.784
		c-0.016,3.478-1.874,5.567-4.849,5.585c-3.021,0.017-4.968-1.965-5.014-5.473c-0.09-6.794-0.03-13.589-0.033-20.384
		c0-1.073,0-2.146,0-3.019c-0.473-0.242-0.555-0.315-0.644-0.324c-10.023-1.046-11.688-2.932-11.688-13.245
		c0-1.898-0.006-3.797,0.001-5.694c0.028-6.513,3.386-9.984,9.869-10.224c0.683-0.025,1.363-0.115,2.462-0.211
		c0-1.244,0-2.409,0-3.575c-0.001-13.989-0.004-27.978-0.001-41.966c0-0.998-0.036-2.007,0.085-2.993
		c0.366-2.969,2.447-4.741,5.268-4.567c2.611,0.161,4.483,2.122,4.53,4.987c0.072,4.495,0.022,8.993,0.022,13.489
		c0.001,10.492,0,20.983,0,31.475C85.031,81.386,85.031,82.367,85.031,83.775z M73.068,93.876c0,3.128,0,5.953,0,8.871
		c4.846,0,9.464,0,14.259,0c0-3.028,0-5.853,0-8.871C82.527,93.876,77.906,93.876,73.068,93.876z"/>
	<path fill-rule="evenodd" clip-rule="evenodd" d="M50.71,62.473c0,3.045,0,5.795,0,8.732c-4.799,0-9.434,0-14.28,0
		c0-2.885,0-5.709,0-8.732C41.151,62.473,45.783,62.473,50.71,62.473z"/>
	<path fill-rule="evenodd" clip-rule="evenodd" d="M109.604,75.4c0-2.929,0-5.693,0-8.697c4.713,0,9.35,0,14.264,0
		c0,2.814,0,5.638,0,8.697C119.24,75.4,114.598,75.4,109.604,75.4z"/>
	<path fill-rule="evenodd" clip-rule="evenodd" d="M73.068,93.876c4.838,0,9.459,0,14.259,0c0,3.019,0,5.843,0,8.871
		c-4.795,0-9.414,0-14.259,0C73.068,99.83,73.068,97.004,73.068,93.876z"/>
</g>
</svg>
